<?xml version="1.0" standalone="no"?>
<!DOCTYPE svg PUBLIC "-//W3C//DTD SVG 20010904//EN"
 "http://www.w3.org/TR/2001/REC-SVG-20010904/DTD/svg10.dtd">
<svg version="1.0" xmlns="http://www.w3.org/2000/svg"
 width="500.000000pt" height="500.000000pt" viewBox="0 0 500.000000 500.000000"
 preserveAspectRatio="xMidYMid meet">
<metadata>
Created by potrace 1.14, written by Peter Selinger 2001-2017
</metadata>
<g transform="translate(0.000000,500.000000) scale(0.100000,-0.100000)"
fill="#000000" stroke="none">
<path d="M2488 4165 c-2 -2 -48 -6 -103 -9 -55 -3 -111 -8 -125 -11 -14 -3
-38 -7 -55 -10 -25 -5 -41 -8 -95 -20 -60 -14 -84 -20 -134 -36 -86 -29 -177
-67 -234 -97 -135 -73 -157 -85 -162 -91 -3 -4 -22 -17 -43 -29 -42 -24 -37
-21 -130 -97 -186 -153 -352 -366 -453 -579 -48 -101 -121 -315 -128 -375 -3
-20 -5 -36 -7 -36 -2 0 -3 -8 -14 -100 -4 -33 -9 -63 -12 -67 -2 -4 20 -31 49
-59 55 -53 127 -113 129 -107 1 1 3 26 4 53 4 79 15 199 20 215 2 8 6 31 9 50
4 19 11 53 16 75 6 22 13 48 15 58 9 40 69 192 77 195 4 2 8 11 8 19 0 53 190
326 301 433 74 71 107 100 114 100 4 0 15 8 24 18 9 10 45 37 81 60 36 23 70
45 75 49 28 22 153 81 159 76 3 -4 6 -2 6 4 0 10 197 81 250 89 14 3 31 7 39
10 8 2 30 7 50 10 20 3 42 7 49 9 20 7 161 18 227 18 70 1 235 -12 246 -18 4
-3 24 -7 45 -10 69 -10 227 -57 309 -92 81 -35 226 -110 235 -122 3 -4 22 -17
43 -30 21 -13 43 -28 50 -34 7 -7 33 -29 58 -49 73 -59 133 -120 204 -210 93
-116 106 -134 127 -178 7 -14 16 -27 20 -30 18 -14 134 -290 122 -290 -4 0 -2
-6 3 -12 9 -12 27 -74 39 -133 2 -11 6 -31 9 -45 6 -26 16 -151 19 -232 1 -26
4 -49 7 -52 3 -3 20 8 38 24 18 17 34 30 36 30 3 0 25 19 50 43 47 44 51 55
41 122 -21 147 -22 153 -26 158 -1 1 -3 11 -4 22 -5 37 -48 179 -66 220 -62
138 -88 191 -132 264 -131 218 -314 410 -523 546 -185 120 -404 212 -596 250
-48 10 -97 18 -124 20 -16 2 -30 4 -30 5 0 1 -38 4 -85 6 -47 2 -93 6 -102 8
-9 2 -18 3 -20 1z"/>
<path d="M2526 3771 c-15 -17 -16 -23 -6 -36 15 -19 34 -19 49 -1 9 10 7 19
-7 35 l-17 23 -19 -21z"/>
<path d="M2170 3760 c0 -22 1 -23 24 -14 23 9 20 34 -4 34 -13 0 -20 -7 -20
-20z"/>
<path d="M2961 3686 c-9 -11 -8 -18 5 -31 17 -16 18 -16 31 1 9 13 10 21 2 31
-14 17 -24 16 -38 -1z"/>
<path d="M1882 3661 c-20 -12 -10 -46 12 -46 24 0 30 16 14 38 -9 11 -18 14
-26 8z"/>
<path d="M2301 3473 c-32 -26 -37 -74 -11 -103 28 -33 85 -33 111 -1 56 69
-32 159 -100 104z"/>
<path d="M1538 3463 c17 -9 32 -20 32 -25 0 -4 6 -8 13 -8 14 0 200 -188 243
-245 37 -51 38 -51 108 -124 48 -49 71 -64 123 -82 35 -11 70 -22 78 -23 23
-3 30 -16 9 -17 -10 0 -28 -2 -39 -5 -11 -2 -33 -6 -50 -8 -130 -20 -377 -118
-525 -208 -72 -44 -200 -139 -200 -150 0 -4 -7 -8 -15 -8 -8 0 -15 -4 -15 -9
0 -4 -17 -26 -37 -47 -56 -59 -123 -154 -122 -173 0 -10 2 -11 6 -3 2 6 9 12
14 12 11 0 70 40 81 55 4 6 8 6 8 2 0 -4 15 3 33 17 36 27 227 127 227 119 0
-3 6 -1 13 5 11 9 141 53 247 83 56 16 47 14 100 23 25 5 54 10 65 13 53 11
70 14 109 18 22 2 54 7 70 10 49 10 56 2 39 -46 -8 -24 -13 -62 -12 -86 2 -23
0 -45 -3 -48 -3 -4 -1 -21 4 -38 31 -95 42 -121 63 -145 l24 -27 -4 25 c-2 14
-10 54 -18 90 -22 104 1 247 43 270 30 16 40 4 29 -33 -10 -30 -13 -133 -5
-167 9 -45 53 -137 78 -164 18 -20 18 -20 18 0 0 11 -5 25 -10 30 -40 40 -32
306 10 348 5 5 19 11 31 13 15 2 19 -1 15 -14 -6 -18 -16 -79 -21 -120 -1 -13
1 -23 4 -23 3 0 7 -17 8 -37 1 -21 6 -46 11 -58 38 -81 60 -118 81 -131 17
-12 22 -13 17 -2 -3 7 -9 21 -12 31 -4 9 -9 17 -13 17 -4 0 -7 8 -8 18 -1 9
-6 37 -11 62 -11 60 -7 160 10 229 5 22 31 51 44 51 17 0 23 -21 12 -48 -24
-68 2 -217 50 -279 42 -56 54 -42 28 31 -29 78 -29 213 -2 270 9 20 18 36 19
37 13 6 197 7 197 1 0 -4 -16 -16 -35 -25 -36 -17 -46 -34 -20 -34 8 0 15 3
15 7 0 4 6 7 13 7 6 1 44 13 83 27 85 30 214 67 214 60 0 -3 8 0 19 5 10 6 33
12 52 15 30 4 68 10 174 31 17 3 44 8 60 10 33 4 114 17 240 40 17 3 37 8 45
10 8 2 29 7 47 10 64 11 110 36 61 34 -13 -1 -36 1 -53 4 -16 3 -57 9 -90 12
-33 3 -73 7 -90 9 -16 2 -64 7 -105 10 -41 4 -96 9 -123 12 -250 26 -827 25
-1035 -2 -37 -5 -45 -3 -65 22 -12 16 -71 78 -132 139 -156 156 -296 247 -476
306 -97 32 -145 38 -91 12z"/>
<path d="M2904 3446 c-21 -12 -29 -44 -16 -64 5 -7 22 -14 37 -15 22 -1 32 4
41 22 22 44 -20 82 -62 57z"/>
<path d="M3360 3400 c0 -15 5 -20 18 -18 9 2 17 10 17 18 0 8 -8 16 -17 18
-13 2 -18 -3 -18 -18z"/>
<path d="M3134 3266 c-9 -23 7 -38 26 -26 13 8 13 11 -2 26 -16 17 -18 17 -24
0z"/>
<path d="M3533 3231 c-13 -8 -8 -42 8 -52 17 -10 39 8 39 31 0 18 -31 32 -47
21z"/>
<path d="M1404 3165 c-4 -9 -2 -21 4 -27 15 -15 44 -1 40 19 -4 23 -36 29 -44
8z"/>
<path d="M1265 2914 c-15 -15 -15 -18 0 -35 28 -30 70 6 44 37 -15 18 -24 18
-44 -2z"/>
<path d="M3595 2711 c-268 -118 -267 -117 -530 -247 -261 -128 -495 -252 -615
-324 -25 -14 -89 -53 -143 -85 -54 -32 -95 -60 -92 -63 15 -15 362 2 455 23
39 8 83 17 105 20 11 2 34 8 50 15 17 6 30 11 30 10 0 -4 61 14 70 21 6 4 14
7 18 7 18 0 167 57 167 64 0 5 6 8 13 8 15 0 101 42 105 53 2 4 10 7 18 7 8 0
14 5 14 10 0 6 3 9 8 8 7 -2 53 21 62 31 3 3 25 19 50 35 106 68 215 173 309
298 53 69 118 185 109 193 -2 2 -93 -36 -203 -84z"/>
<path d="M3162 2718 c-19 -19 -15 -66 7 -78 40 -21 81 -1 81 39 0 34 -17 51
-50 51 -14 0 -31 -5 -38 -12z"/>
<path d="M2725 2670 c-3 -6 1 -7 9 -4 18 7 21 14 7 14 -6 0 -13 -4 -16 -10z"/>
<path d="M795 2368 c2 -24 7 -60 11 -81 3 -20 7 -47 9 -60 34 -272 131 -505
322 -777 40 -56 203 -227 274 -285 50 -42 157 -115 168 -115 6 0 11 -3 11 -8
0 -4 21 -18 48 -32 26 -13 49 -27 52 -30 18 -21 301 -133 369 -146 14 -3 28
-7 33 -10 5 -3 21 -7 36 -10 15 -2 50 -9 77 -14 128 -24 376 -34 460 -19 22 4
65 10 95 13 71 7 165 30 265 63 44 15 82 28 85 29 69 19 250 116 368 197 115
78 288 241 374 352 183 234 308 536 334 804 2 24 6 51 9 60 11 34 14 111 5
111 -9 0 -49 -31 -92 -72 -10 -10 -18 -15 -18 -10 0 4 -4 2 -8 -3 -16 -24
-144 -105 -237 -152 -81 -40 -295 -127 -340 -137 -44 -11 -72 -20 -80 -26 -5
-4 -28 -13 -50 -20 -22 -6 -53 -18 -70 -25 -16 -7 -42 -17 -57 -20 -16 -4 -28
-11 -28 -17 0 -5 -4 -7 -8 -4 -10 6 -190 -84 -279 -140 -254 -160 -397 -240
-444 -249 -8 -2 -33 -11 -55 -20 -21 -9 -40 -16 -41 -16 -2 1 -4 1 -5 0 -2 0
-10 -2 -18 -4 -8 -2 -36 -8 -62 -14 -140 -32 -338 -35 -488 -6 -23 4 -36 7
-95 20 -11 2 -35 8 -53 14 -18 5 -33 10 -35 10 -1 0 -9 2 -17 5 -54 19 -264
66 -309 68 -50 3 -57 6 -83 42 -67 92 -124 219 -85 189 6 -6 23 -13 37 -16 59
-13 65 -15 165 -53 11 -4 22 -8 25 -8 3 -1 11 -5 18 -9 6 -5 12 -5 12 -1 0 3
6 2 13 -3 6 -6 37 -18 67 -28 30 -10 61 -22 68 -28 6 -5 12 -6 12 -3 0 4 10 1
22 -5 13 -7 32 -14 43 -16 11 -1 52 -11 92 -22 105 -27 161 -34 323 -36 155
-2 257 11 375 47 39 12 72 22 75 23 3 0 35 15 73 33 84 41 134 73 141 90 3 7
2 11 -2 8 -4 -2 -28 -7 -52 -11 -25 -3 -58 -10 -75 -14 -34 -9 -360 -7 -390 2
-11 4 -42 9 -70 12 -27 3 -102 19 -165 36 -141 36 -145 37 -145 39 0 1 -7 3
-15 5 -81 16 -420 169 -549 247 -34 21 -65 38 -66 38 -2 0 -52 33 -111 73 -58
39 -114 77 -122 82 -9 6 -24 17 -32 25 -28 29 -98 80 -109 80 -6 0 -9 -16 -6
-42z m3043 -630 c-13 -24 -25 -45 -29 -48 -3 -3 -15 -21 -27 -40 -52 -87 -61
-92 -158 -95 -49 -2 -109 -7 -134 -13 -25 -6 -56 -13 -70 -15 -35 -7 -122 -34
-205 -65 -38 -15 -73 -25 -77 -24 -5 1 -8 -2 -8 -8 0 -5 -5 -10 -10 -10 -6 0
-30 -9 -52 -20 -23 -11 -48 -20 -55 -20 -7 0 -13 -3 -13 -8 0 -4 -15 -13 -32
-21 -18 -8 -62 -28 -98 -45 -55 -27 -154 -68 -170 -71 -4 -1 -53 -16 -105 -31
-86 -27 -261 -50 -400 -54 l-60 -2 42 -19 c24 -11 67 -22 95 -25 29 -3 72 -9
95 -13 48 -9 298 -7 328 2 11 3 31 8 45 11 41 7 114 27 125 35 6 4 30 14 55
21 25 7 52 20 62 28 9 7 22 14 30 16 7 1 30 12 49 24 20 12 40 22 44 22 5 0
16 6 24 14 9 7 41 27 71 43 85 46 104 57 124 73 10 8 21 14 25 14 10 -2 53 18
84 39 15 10 27 16 27 13 0 -3 15 3 33 13 27 15 55 25 102 37 6 1 24 8 40 15
47 19 56 19 46 0 -18 -32 -176 -184 -251 -240 -41 -31 -77 -58 -80 -61 -3 -3
-14 -10 -25 -16 -50 -28 -70 -39 -75 -45 -10 -11 -177 -87 -240 -109 -36 -12
-72 -25 -80 -28 -8 -3 -19 -6 -25 -7 -5 -1 -12 -3 -15 -4 -10 -5 -45 -12 -78
-16 -18 -2 -36 -6 -40 -8 -19 -12 -152 -22 -282 -21 -163 2 -191 5 -355 38
-94 19 -404 152 -435 187 -3 3 -23 16 -45 29 -47 28 -176 131 -222 178 -34 35
-42 49 -20 35 6 -4 20 -8 30 -9 9 -1 18 -2 20 -4 1 -1 11 -3 22 -5 11 -2 29
-5 40 -8 11 -3 43 -10 70 -17 28 -6 57 -14 65 -18 8 -3 22 -6 30 -8 8 -1 35
-7 60 -14 174 -47 396 -65 572 -46 232 25 380 78 718 256 82 43 234 108 265
114 6 1 15 4 20 8 11 7 192 55 234 63 14 2 51 9 81 15 30 6 89 13 130 17 41 3
77 7 79 9 13 11 9 0 -11 -38z"/>
<path d="M2276 2213 c-11 -12 -37 -15 -144 -16 l-104 -2 -17 -35 c-36 -74
-100 -147 -202 -232 -37 -31 -27 -36 26 -14 18 8 36 12 39 9 3 -3 12 0 21 7 8
7 15 10 15 7 0 -11 148 67 227 120 76 51 173 138 173 155 0 10 -24 10 -34 1z"/>
</g>
</svg>
